<svg width="181" height="26" viewBox="0 0 181 26" fill="none" xmlns="http://www.w3.org/2000/svg">
<g clip-path="url(#clip0_1359_353)">
<path d="M62.9971 15.8907C62.1941 15.8907 61.4522 15.7598 60.7715 15.4979L60.1169 16.2834C59.9074 16.5453 59.8463 16.7984 59.9336 17.0428C60.0383 17.2697 60.274 17.3832 60.6405 17.3832H64.0706C65.5893 17.3832 66.8112 17.7061 67.7364 18.352C68.679 18.9804 69.1503 19.9492 69.1503 21.2584C69.1503 22.0788 68.9409 22.8207 68.5219 23.484C68.1204 24.1648 67.4658 24.706 66.5581 25.1074C65.6679 25.5089 64.4896 25.7097 63.0233 25.7097C61.1729 25.7097 59.6805 25.3606 58.5458 24.6623C57.4286 23.9815 56.87 22.9516 56.87 21.5726C56.87 21.0838 56.9835 20.63 57.2104 20.211C57.4548 19.8096 57.769 19.443 58.1531 19.1113C57.6818 18.7622 57.3937 18.2734 57.289 17.645C57.2017 16.9991 57.3937 16.3795 57.865 15.786L59.0171 14.3197C58.1967 13.4469 57.7865 12.3733 57.7865 11.099C57.7865 10.2437 57.9872 9.45816 58.3887 8.74247C58.8077 8.00931 59.4012 7.42454 60.1692 6.98814C60.9547 6.55174 61.8974 6.33354 62.9971 6.33354C63.7128 6.33354 64.3761 6.43828 64.9871 6.64775H69.8835V8.48063L67.6055 8.61155V8.8472C67.9721 9.52798 68.1553 10.2786 68.1553 11.099C68.1553 11.9544 67.9459 12.7486 67.5269 13.4818C67.1254 14.2149 66.5407 14.7997 65.7726 15.2361C65.0045 15.6725 64.0794 15.8907 62.9971 15.8907ZM62.9971 13.6651C63.7652 13.6651 64.3936 13.4381 64.8823 12.9843C65.3886 12.5304 65.6417 11.902 65.6417 11.099C65.6417 10.331 65.3886 9.72 64.8823 9.26614C64.3936 8.81229 63.7652 8.58536 62.9971 8.58536C62.2116 8.58536 61.5657 8.81229 61.0595 9.26614C60.5707 9.72 60.3263 10.331 60.3263 11.099C60.3263 11.902 60.5707 12.5304 61.0595 12.9843C61.5657 13.4381 62.2116 13.6651 62.9971 13.6651ZM59.4884 21.3631C59.4884 22.0614 59.8201 22.5763 60.4834 22.908C61.1642 23.2397 62.0108 23.4055 63.0233 23.4055C64.1056 23.4055 64.9609 23.2222 65.5893 22.8556C66.2177 22.489 66.5319 21.9741 66.5319 21.3108C66.5319 20.7522 66.305 20.307 65.8511 19.9754C65.3973 19.6612 64.6292 19.5041 63.547 19.5041H60.4834C59.8201 20.0278 59.4884 20.6474 59.4884 21.3631ZM78.7234 4.65777C78.1125 4.65777 77.5975 4.46575 77.1786 4.08172C76.7771 3.68023 76.5763 3.19147 76.5763 2.61542C76.5763 2.03937 76.7771 1.55933 77.1786 1.1753C77.5975 0.791269 78.1125 0.599253 78.7234 0.599253C79.3518 0.599253 79.8668 0.791269 80.2683 1.1753C80.6872 1.55933 80.8967 2.03937 80.8967 2.61542C80.8967 3.19147 80.6872 3.68023 80.2683 4.08172C79.8668 4.46575 79.3518 4.65777 78.7234 4.65777ZM73.5128 19.635V17.2261H77.5975V9.92074C77.5975 9.3447 77.3182 9.05667 76.7596 9.05667H73.8794V6.64775H77.2571C78.3394 6.64775 79.1249 6.90086 79.6137 7.40708C80.1199 7.89585 80.373 8.68137 80.373 9.76364V17.2261H84.4577V19.635H73.5128ZM96.0994 19.635C94.8251 19.635 93.8126 19.3295 93.062 18.7186C92.3114 18.0901 91.9361 16.9817 91.9361 15.3932V9.00431H88.6631V6.64775H90.6007C91.491 6.64775 92.0147 6.21135 92.1718 5.33855L92.5645 3.24383H94.7116V6.64775H99.8437V9.00431H94.7116V15.3408C94.7116 16.0216 94.86 16.5016 95.1567 16.7809C95.4709 17.0428 96.0033 17.1737 96.754 17.1737H99.7913V19.635H96.0994ZM110.098 15.8907C109.295 15.8907 108.553 15.7598 107.872 15.4979L107.217 16.2834C107.008 16.5453 106.947 16.7984 107.034 17.0428C107.139 17.2697 107.374 17.3832 107.741 17.3832H111.171C112.69 17.3832 113.912 17.7061 114.837 18.352C115.779 18.9804 116.251 19.9492 116.251 21.2584C116.251 22.0788 116.041 22.8207 115.622 23.484C115.221 24.1648 114.566 24.706 113.659 25.1074C112.768 25.5089 111.59 25.7097 110.124 25.7097C108.273 25.7097 106.781 25.3606 105.646 24.6623C104.529 23.9815 103.97 22.9516 103.97 21.5726C103.97 21.0838 104.084 20.63 104.311 20.211C104.555 19.8096 104.869 19.443 105.254 19.1113C104.782 18.7622 104.494 18.2734 104.389 17.645C104.302 16.9991 104.494 16.3795 104.965 15.786L106.118 14.3197C105.297 13.4469 104.887 12.3733 104.887 11.099C104.887 10.2437 105.088 9.45816 105.489 8.74247C105.908 8.00931 106.502 7.42454 107.27 6.98814C108.055 6.55174 108.998 6.33354 110.098 6.33354C110.813 6.33354 111.477 6.43828 112.088 6.64775H116.984V8.48063L114.706 8.61155V8.8472C115.072 9.52798 115.256 10.2786 115.256 11.099C115.256 11.9544 115.046 12.7486 114.627 13.4818C114.226 14.2149 113.641 14.7997 112.873 15.2361C112.105 15.6725 111.18 15.8907 110.098 15.8907ZM110.098 13.6651C110.866 13.6651 111.494 13.4381 111.983 12.9843C112.489 12.5304 112.742 11.902 112.742 11.099C112.742 10.331 112.489 9.72 111.983 9.26614C111.494 8.81229 110.866 8.58536 110.098 8.58536C109.312 8.58536 108.666 8.81229 108.16 9.26614C107.671 9.72 107.427 10.331 107.427 11.099C107.427 11.902 107.671 12.5304 108.16 12.9843C108.666 13.4381 109.312 13.6651 110.098 13.6651ZM106.589 21.3631C106.589 22.0614 106.921 22.5763 107.584 22.908C108.265 23.2397 109.111 23.4055 110.124 23.4055C111.206 23.4055 112.061 23.2222 112.69 22.8556C113.318 22.489 113.632 21.9741 113.632 21.3108C113.632 20.7522 113.405 20.307 112.952 19.9754C112.498 19.6612 111.73 19.5041 110.647 19.5041H107.584C106.921 20.0278 106.589 20.6474 106.589 21.3631ZM124.907 19.9492C123.878 19.9492 123.013 19.7746 122.315 19.4255C121.617 19.0589 121.093 18.5789 120.744 17.9854C120.395 17.3744 120.221 16.7111 120.221 15.9954C120.221 14.7211 120.683 13.7261 121.608 13.0105C122.551 12.2948 123.878 11.9369 125.588 11.9369H128.94V11.6489C128.94 9.69382 128.032 8.71628 126.217 8.71628C125.466 8.71628 124.829 8.88211 124.305 9.21378C123.799 9.52798 123.459 10.0429 123.284 10.7586H120.509C120.648 9.39706 121.233 8.32352 122.263 7.538C123.31 6.73503 124.628 6.33354 126.217 6.33354C128.137 6.33354 129.533 6.80485 130.406 7.74748C131.279 8.6901 131.715 9.99057 131.715 11.6489V19.635H129.359L129.123 17.7236H128.94C128.556 18.3345 128.076 18.8582 127.5 19.2946C126.924 19.731 126.06 19.9492 124.907 19.9492ZM125.431 17.6188C126.566 17.6188 127.412 17.2784 127.971 16.5977C128.547 15.8994 128.861 15.0179 128.914 13.9531H125.876C124.881 13.9531 124.174 14.1189 123.755 14.4506C123.354 14.7648 123.153 15.2099 123.153 15.786C123.153 16.362 123.354 16.8159 123.755 17.1475C124.174 17.4617 124.733 17.6188 125.431 17.6188ZM140.634 19.9492C139.063 19.9492 137.867 19.4692 137.047 18.5091C136.244 17.5315 135.842 16.1176 135.842 14.2673V6.64775H138.618V13.9269C138.618 14.9917 138.845 15.8296 139.298 16.4406C139.77 17.0341 140.485 17.3308 141.445 17.3308C142.406 17.3308 143.209 17.0079 143.854 16.362C144.5 15.7161 144.823 14.7822 144.823 13.5603V6.64775H147.599V19.635H145.19L144.954 17.6974H144.823C144.474 18.3258 143.933 18.8582 143.2 19.2946C142.467 19.731 141.611 19.9492 140.634 19.9492ZM157.198 15.8907C156.395 15.8907 155.653 15.7598 154.972 15.4979L154.318 16.2834C154.108 16.5453 154.047 16.7984 154.134 17.0428C154.239 17.2697 154.475 17.3832 154.841 17.3832H158.272C159.79 17.3832 161.012 17.7061 161.937 18.352C162.88 18.9804 163.351 19.9492 163.351 21.2584C163.351 22.0788 163.142 22.8207 162.723 23.484C162.321 24.1648 161.667 24.706 160.759 25.1074C159.869 25.5089 158.69 25.7097 157.224 25.7097C155.374 25.7097 153.881 25.3606 152.747 24.6623C151.63 23.9815 151.071 22.9516 151.071 21.5726C151.071 21.0838 151.184 20.63 151.411 20.211C151.656 19.8096 151.97 19.443 152.354 19.1113C151.883 18.7622 151.595 18.2734 151.49 17.645C151.403 16.9991 151.595 16.3795 152.066 15.786L153.218 14.3197C152.398 13.4469 151.987 12.3733 151.987 11.099C151.987 10.2437 152.188 9.45816 152.59 8.74247C153.009 8.00931 153.602 7.42454 154.37 6.98814C155.156 6.55174 156.098 6.33354 157.198 6.33354C157.914 6.33354 158.577 6.43828 159.188 6.64775H164.084V8.48063L161.806 8.61155V8.8472C162.173 9.52798 162.356 10.2786 162.356 11.099C162.356 11.9544 162.147 12.7486 161.728 13.4818C161.326 14.2149 160.742 14.7997 159.973 15.2361C159.205 15.6725 158.28 15.8907 157.198 15.8907ZM157.198 13.6651C157.966 13.6651 158.594 13.4381 159.083 12.9843C159.589 12.5304 159.843 11.902 159.843 11.099C159.843 10.331 159.589 9.72 159.083 9.26614C158.594 8.81229 157.966 8.58536 157.198 8.58536C156.412 8.58536 155.767 8.81229 155.26 9.26614C154.772 9.72 154.527 10.331 154.527 11.099C154.527 11.902 154.772 12.5304 155.26 12.9843C155.767 13.4381 156.412 13.6651 157.198 13.6651ZM153.689 21.3631C153.689 22.0614 154.021 22.5763 154.684 22.908C155.365 23.2397 156.212 23.4055 157.224 23.4055C158.306 23.4055 159.162 23.2222 159.79 22.8556C160.419 22.489 160.733 21.9741 160.733 21.3108C160.733 20.7522 160.506 20.307 160.052 19.9754C159.598 19.6612 158.83 19.5041 157.748 19.5041H154.684C154.021 20.0278 153.689 20.6474 153.689 21.3631ZM173.343 19.9492C172.086 19.9492 170.978 19.6699 170.018 19.1113C169.058 18.5353 168.307 17.741 167.766 16.7286C167.225 15.7161 166.954 14.5378 166.954 13.1937C166.954 11.8322 167.216 10.6364 167.74 9.60654C168.281 8.57663 169.032 7.77366 169.992 7.19761C170.969 6.62156 172.095 6.33354 173.369 6.33354C174.626 6.33354 175.709 6.62156 176.616 7.19761C177.524 7.7562 178.222 8.50681 178.711 9.44943C179.217 10.3921 179.47 11.4307 179.47 12.5653C179.47 12.7399 179.47 12.9319 179.47 13.1414C179.47 13.3334 179.462 13.5516 179.444 13.796H169.678C169.765 15.0004 170.158 15.9169 170.856 16.5453C171.554 17.1562 172.374 17.4617 173.317 17.4617C174.138 17.4617 174.783 17.2959 175.255 16.9642C175.743 16.6151 176.101 16.1438 176.328 15.5503H179.13C178.816 16.7897 178.161 17.837 177.166 18.6924C176.171 19.5303 174.897 19.9492 173.343 19.9492ZM173.343 8.74247C172.488 8.74247 171.729 9.00431 171.065 9.52799C170.402 10.0342 169.974 10.7499 169.782 11.6751H176.695C176.625 10.8023 176.285 10.0953 175.674 9.55417C175.063 9.01303 174.286 8.74247 173.343 8.74247Z" fill="white"/>
<path d="M5.74961 21.1252C5.74961 22.7129 4.46252 24 2.8748 24C1.28709 24 0 22.7129 0 21.1252C0 19.5375 1.28709 18.2504 2.8748 18.2504C4.46252 18.2504 5.74961 19.5375 5.74961 21.1252Z" fill="white"/>
<path d="M39.1148 10.9066C39.1148 12.4944 37.8277 13.7815 36.24 13.7815C34.6523 13.7815 33.3652 12.4944 33.3652 10.9066C33.3652 9.31894 34.6523 8.03185 36.24 8.03185C37.8277 8.03185 39.1148 9.31894 39.1148 10.9066Z" fill="white"/>
<path d="M23.8696 21.1252C23.8696 22.7129 22.5825 24 20.9948 24C19.4071 24 18.12 22.7129 18.12 21.1252C18.12 19.5375 19.4071 18.2504 20.9948 18.2504C22.5825 18.2504 23.8696 19.5375 23.8696 21.1252Z" fill="white"/>
<path d="M41.9896 21.1252C41.9896 22.7129 40.7026 24 39.1148 24C37.5271 24 36.24 22.7129 36.24 21.1252C36.24 19.5375 37.5271 18.2504 39.1148 18.2504C40.7026 18.2504 41.9896 19.5375 41.9896 21.1252Z" fill="white"/>
<path fill-rule="evenodd" clip-rule="evenodd" d="M39.1148 21.8045L2.8748 21.8045V20.4459L39.1148 20.4459V21.8045Z" fill="white"/>
<path fill-rule="evenodd" clip-rule="evenodd" d="M35.2543 11.692C35.2543 11.692 35.2539 11.692 35.2799 11.011C35.3059 10.3299 35.3056 10.3299 35.3053 10.3299L35.3045 10.3299L35.3026 10.3298L35.2969 10.3296C35.2922 10.3295 35.286 10.3293 35.2781 10.3291C35.2625 10.3288 35.2406 10.3283 35.2128 10.328C35.1573 10.3274 35.0782 10.3273 34.979 10.3292C34.7807 10.3329 34.5007 10.3443 34.1658 10.3751C33.4999 10.4365 32.5987 10.5762 31.6871 10.8948C30.778 11.2124 29.8206 11.7213 29.0863 12.5448C28.3392 13.3828 27.859 14.5073 27.859 15.9724C27.859 17.1106 27.4962 17.9078 26.9789 18.488C26.4487 19.0826 25.7201 19.4883 24.9433 19.7598C24.169 20.0304 23.3842 20.1545 22.7857 20.2096C22.4883 20.237 22.2415 20.247 22.0709 20.2501C21.9858 20.2517 21.92 20.2516 21.8767 20.2511C21.8551 20.2509 21.8391 20.2506 21.8292 20.2503L21.819 20.2501L21.8178 20.25C21.8178 20.25 21.8183 20.25 21.7923 20.9311C21.7663 21.6121 21.7666 21.6121 21.7669 21.6121L21.7696 21.6122L21.7753 21.6124C21.7799 21.6125 21.7862 21.6127 21.794 21.6129C21.8096 21.6133 21.8315 21.6137 21.8593 21.614C21.9148 21.6146 21.9939 21.6147 22.0931 21.6128C22.2914 21.6092 22.5715 21.5977 22.9063 21.5669C23.5722 21.5055 24.4734 21.3659 25.3851 21.0473C26.2942 20.7296 27.2516 20.2207 27.9859 19.3972C28.733 18.5593 29.2132 17.4347 29.2132 15.9696C29.2132 14.8314 29.5759 14.0342 30.0933 13.454C30.6235 12.8594 31.352 12.4537 32.1289 12.1822C32.9032 11.9116 33.6879 11.7875 34.2865 11.7324C34.5839 11.705 34.8307 11.6951 35.0012 11.6919C35.0864 11.6903 35.1522 11.6904 35.1954 11.6909C35.2171 11.6911 35.233 11.6915 35.2429 11.6917L35.2531 11.692L35.2543 11.692Z" fill="white"/>
<path fill-rule="evenodd" clip-rule="evenodd" d="M10.7711 5.64753C10.318 5.10501 9.5209 4.99659 8.97022 5.4397C5.56609 8.17889 3.2457 11.9608 2.64825 16.2178C2.61119 16.4819 2.81682 16.7146 3.08343 16.7194C3.27598 16.7228 3.44907 16.604 3.52005 16.4249C4.8568 13.0536 7.42429 10.2128 10.7324 8.34605C11.5205 7.90137 11.7704 6.84419 11.1904 6.14968L10.7711 5.64753Z" fill="white"/>
<path fill-rule="evenodd" clip-rule="evenodd" d="M13.3658 6.21055C13.7233 6.63866 14.305 6.80019 14.8425 6.65134C16.4607 6.20322 18.1789 5.9621 19.9593 5.9621C20.6234 5.9621 21.1842 5.43882 21.1842 4.77463V2.35709C21.1842 1.583 20.5375 0.961243 19.7679 1.04503C17.2572 1.31838 14.8926 2.01136 12.7658 3.04256C12.0102 3.40888 11.8414 4.38519 12.3796 5.02967L13.3658 6.21055Z" fill="white"/>
<path fill-rule="evenodd" clip-rule="evenodd" d="M30.0474 7.59826C29.619 8.07624 28.917 8.18424 28.342 7.89897C26.9834 7.22485 25.5148 6.7095 23.9669 6.38053C23.3085 6.24062 22.8143 5.6743 22.8143 5.00123V2.31979C22.8143 1.55474 23.4466 0.936329 24.2085 1.00525C26.9729 1.25532 29.5681 2.01315 31.8741 3.17204C32.6336 3.55373 32.78 4.54884 32.2127 5.18187L30.0474 7.59826Z" fill="white"/>
</g>
<defs>
<clipPath id="clip0_1359_353">
<rect width="181" height="26" fill="white"/>
</clipPath>
</defs>
</svg>
