<svg width="42" height="26" viewBox="0 0 42 26" fill="none" xmlns="http://www.w3.org/2000/svg">
<g clip-path="url(#clip0_1359_364)">
<path d="M5.74961 21.1252C5.74961 22.7129 4.46252 24 2.8748 24C1.28709 24 0 22.7129 0 21.1252C0 19.5375 1.28709 18.2504 2.8748 18.2504C4.46252 18.2504 5.74961 19.5375 5.74961 21.1252Z" fill="white"/>
<path d="M39.1148 10.9067C39.1148 12.4944 37.8277 13.7815 36.24 13.7815C34.6523 13.7815 33.3652 12.4944 33.3652 10.9067C33.3652 9.31895 34.6523 8.03186 36.24 8.03186C37.8277 8.03186 39.1148 9.31895 39.1148 10.9067Z" fill="white"/>
<path d="M23.8696 21.1252C23.8696 22.7129 22.5825 24 20.9948 24C19.4071 24 18.12 22.7129 18.12 21.1252C18.12 19.5375 19.4071 18.2504 20.9948 18.2504C22.5825 18.2504 23.8696 19.5375 23.8696 21.1252Z" fill="white"/>
<path d="M41.9896 21.1252C41.9896 22.7129 40.7026 24 39.1148 24C37.5271 24 36.24 22.7129 36.24 21.1252C36.24 19.5375 37.5271 18.2504 39.1148 18.2504C40.7026 18.2504 41.9896 19.5375 41.9896 21.1252Z" fill="white"/>
<path fill-rule="evenodd" clip-rule="evenodd" d="M39.1148 21.8045L2.8748 21.8045V20.446L39.1148 20.446V21.8045Z" fill="white"/>
<path fill-rule="evenodd" clip-rule="evenodd" d="M35.2543 11.692C35.2543 11.692 35.2539 11.692 35.2799 11.011C35.3059 10.33 35.3056 10.3299 35.3053 10.3299L35.3045 10.3299L35.3026 10.3298L35.2969 10.3297C35.2922 10.3295 35.286 10.3293 35.2781 10.3292C35.2625 10.3288 35.2406 10.3284 35.2128 10.3281C35.1573 10.3274 35.0782 10.3274 34.979 10.3292C34.7807 10.3329 34.5007 10.3443 34.1658 10.3752C33.4999 10.4365 32.5987 10.5762 31.6871 10.8948C30.778 11.2125 29.8206 11.7213 29.0863 12.5449C28.3392 13.3828 27.859 14.5073 27.859 15.9724C27.859 17.1106 27.4962 17.9078 26.9789 18.488C26.4487 19.0826 25.7201 19.4884 24.9433 19.7598C24.169 20.0304 23.3842 20.1545 22.7857 20.2096C22.4883 20.237 22.2415 20.247 22.0709 20.2501C21.9858 20.2517 21.92 20.2516 21.8767 20.2511C21.8551 20.2509 21.8391 20.2506 21.8292 20.2503L21.819 20.2501L21.8178 20.25C21.8178 20.25 21.8183 20.25 21.7923 20.9311C21.7663 21.6121 21.7666 21.6121 21.7669 21.6121L21.7696 21.6122L21.7753 21.6124C21.7799 21.6125 21.7862 21.6127 21.794 21.6129C21.8096 21.6133 21.8315 21.6137 21.8593 21.614C21.9148 21.6146 21.9939 21.6147 22.0931 21.6129C22.2914 21.6092 22.5715 21.5977 22.9063 21.5669C23.5722 21.5056 24.4734 21.3659 25.3851 21.0473C26.2942 20.7296 27.2516 20.2207 27.9859 19.3972C28.733 18.5593 29.2132 17.4348 29.2132 15.9696C29.2132 14.8314 29.5759 14.0342 30.0933 13.454C30.6235 12.8594 31.352 12.4537 32.1289 12.1822C32.9032 11.9116 33.6879 11.7876 34.2865 11.7324C34.5839 11.705 34.8307 11.6951 35.0012 11.6919C35.0864 11.6903 35.1522 11.6904 35.1954 11.6909C35.2171 11.6911 35.233 11.6915 35.2429 11.6917L35.2531 11.692L35.2543 11.692Z" fill="white"/>
<path fill-rule="evenodd" clip-rule="evenodd" d="M10.7711 5.64753C10.318 5.10501 9.5209 4.99659 8.97022 5.4397C5.56609 8.17889 3.2457 11.9608 2.64825 16.2178C2.61119 16.4819 2.81682 16.7146 3.08343 16.7194C3.27598 16.7228 3.44907 16.604 3.52005 16.4249C4.8568 13.0536 7.42429 10.2128 10.7324 8.34605C11.5205 7.90137 11.7704 6.84419 11.1904 6.14968L10.7711 5.64753Z" fill="white"/>
<path fill-rule="evenodd" clip-rule="evenodd" d="M13.3658 6.21055C13.7233 6.63866 14.305 6.80019 14.8425 6.65134C16.4607 6.20322 18.1789 5.9621 19.9593 5.9621C20.6234 5.9621 21.1842 5.43882 21.1842 4.77463V2.35709C21.1842 1.583 20.5375 0.961243 19.7679 1.04503C17.2572 1.31838 14.8926 2.01136 12.7658 3.04256C12.0102 3.40888 11.8414 4.38519 12.3796 5.02967L13.3658 6.21055Z" fill="white"/>
<path fill-rule="evenodd" clip-rule="evenodd" d="M30.0474 7.59826C29.619 8.07624 28.917 8.18424 28.342 7.89897C26.9834 7.22485 25.5148 6.7095 23.9669 6.38053C23.3085 6.24062 22.8143 5.6743 22.8143 5.00123V2.31979C22.8143 1.55474 23.4466 0.936329 24.2085 1.00525C26.9729 1.25532 29.5681 2.01315 31.8741 3.17204C32.6336 3.55373 32.78 4.54884 32.2127 5.18187L30.0474 7.59826Z" fill="white"/>
</g>
<defs>
<clipPath id="clip0_1359_364">
<rect width="41.99" height="26" fill="white"/>
</clipPath>
</defs>
</svg>
